<svg width="13" height="12" viewBox="0 0 13 12" fill="none" xmlns="http://www.w3.org/2000/svg">
<path d="M6.5 12C5.67778 12 4.90278 11.8417 4.175 11.525C3.44722 11.2083 2.81111 10.7778 2.26667 10.2333C1.72222 9.68889 1.29167 9.05278 0.975 8.325C0.658333 7.59722 0.5 6.82222 0.5 6C0.5 5.51111 0.555556 5.03611 0.666667 4.575C0.777778 4.11389 0.938889 3.68056 1.15 3.275C1.36111 2.86944 1.61389 2.49167 1.90833 2.14167C2.20278 1.79167 2.53333 1.47778 2.9 1.2L7.43333 5.73333L6.5 6.66667L2.9 3.06667C2.56667 3.46667 2.30556 3.91389 2.11667 4.40833C1.92778 4.90278 1.83333 5.43333 1.83333 6C1.83333 7.28889 2.28889 8.38889 3.2 9.3C4.11111 10.2111 5.21111 10.6667 6.5 10.6667C7.78889 10.6667 8.88889 10.2111 9.8 9.3C10.7111 8.38889 11.1667 7.28889 11.1667 6C11.1667 4.81111 10.7861 3.78611 10.025 2.925C9.26389 2.06389 8.31111 1.55556 7.16667 1.4V2.66667H5.83333V0H6.5C7.32222 0 8.09722 0.158333 8.825 0.475C9.55278 0.791667 10.1889 1.22222 10.7333 1.76667C11.2778 2.31111 11.7083 2.94722 12.025 3.675C12.3417 4.40278 12.5 5.17778 12.5 6C12.5 6.82222 12.3417 7.59722 12.025 8.325C11.7083 9.05278 11.2778 9.68889 10.7333 10.2333C10.1889 10.7778 9.55278 11.2083 8.825 11.525C8.09722 11.8417 7.32222 12 6.5 12ZM3.16667 6.66667C2.97778 6.66667 2.81944 6.60278 2.69167 6.475C2.56389 6.34722 2.5 6.18889 2.5 6C2.5 5.81111 2.56389 5.65278 2.69167 5.525C2.81944 5.39722 2.97778 5.33333 3.16667 5.33333C3.35556 5.33333 3.51389 5.39722 3.64167 5.525C3.76944 5.65278 3.83333 5.81111 3.83333 6C3.83333 6.18889 3.76944 6.34722 3.64167 6.475C3.51389 6.60278 3.35556 6.66667 3.16667 6.66667ZM6.5 10C6.31111 10 6.15278 9.93611 6.025 9.80833C5.89722 9.68056 5.83333 9.52222 5.83333 9.33333C5.83333 9.14444 5.89722 8.98611 6.025 8.85833C6.15278 8.73056 6.31111 8.66667 6.5 8.66667C6.68889 8.66667 6.84722 8.73056 6.975 8.85833C7.10278 8.98611 7.16667 9.14444 7.16667 9.33333C7.16667 9.52222 7.10278 9.68056 6.975 9.80833C6.84722 9.93611 6.68889 10 6.5 10ZM9.83333 6.66667C9.64444 6.66667 9.48611 6.60278 9.35833 6.475C9.23056 6.34722 9.16667 6.18889 9.16667 6C9.16667 5.81111 9.23056 5.65278 9.35833 5.525C9.48611 5.39722 9.64444 5.33333 9.83333 5.33333C10.0222 5.33333 10.1806 5.39722 10.3083 5.525C10.4361 5.65278 10.5 5.81111 10.5 6C10.5 6.18889 10.4361 6.34722 10.3083 6.475C10.1806 6.60278 10.0222 6.66667 9.83333 6.66667Z" fill="#2A2A2A"/>
</svg>
